<svg xmlns="http://www.w3.org/2000/svg" xmlns:xlink="http://www.w3.org/1999/xlink" viewBox="0 0 1600 900"><defs><style>.cls-1,.cls-13,.cls-14,.cls-17,.cls-33,.cls-6{fill:none;}.cls-2{isolation:isolate;}.cls-3{fill:#263238;}.cls-4{fill:#536e7b;}.cls-5{clip-path:url(#clip-path);}.cls-6{stroke:#36474f;stroke-width:1.1px;}.cls-13,.cls-14,.cls-17,.cls-33,.cls-6{stroke-miterlimit:10;}.cls-28,.cls-6{opacity:0.26;}.cls-10,.cls-31,.cls-7{fill:#36474f;}.cls-8{clip-path:url(#clip-path-2);}.cls-9{fill:#5f7d8c;}.cls-10{opacity:0.5;}.cls-11{clip-path:url(#clip-path-3);}.cls-12{fill:#008390;}.cls-13{stroke:#8fa4af;}.cls-13,.cls-14,.cls-17{stroke-width:9.09px;}.cls-14{stroke:#00acc3;}.cls-15{clip-path:url(#clip-path-4);}.cls-16{clip-path:url(#clip-path-5);}.cls-17{stroke:#5f7d8c;}.cls-18{fill:#77909d;}.cls-19{fill:#0097a8;}.cls-20{fill:#7effff;}.cls-21,.cls-32{fill:#cfd8dc;}.cls-22{fill:#fff;}.cls-23{fill:#ffe578;}.cls-24{fill:#ffa000;}.cls-25{fill:#ffa100;}.cls-26{fill:#ff9000;}.cls-27{fill:#ff6f00;}.cls-28{mix-blend-mode:multiply;fill:url(#linear-gradient);}.cls-29{fill:#ffd63f;}.cls-30{fill:#8fa4af;}.cls-31,.cls-32{opacity:0.66;}.cls-33{stroke:#cfd8dc;stroke-width:2px;}</style><clipPath id="clip-path"><rect class="cls-1" x="54.55" y="427.12" width="1498.18" height="472.88"/></clipPath><clipPath id="clip-path-2"><rect class="cls-1" width="1600" height="900"/></clipPath><clipPath id="clip-path-3"><rect class="cls-1" x="478.16" y="58.95" width="642.83" height="252.49"/></clipPath><clipPath id="clip-path-4"><rect class="cls-1" y="33.12" width="431.29" height="323.83"/></clipPath><clipPath id="clip-path-5"><rect class="cls-1" x="-243.48" y="58.95" width="642.83" height="252.49"/></clipPath><linearGradient id="linear-gradient" x1="799.76" y1="898.34" x2="799.76" y2="572.95" gradientUnits="userSpaceOnUse"><stop offset="0" stop-color="#fff" stop-opacity="0"/><stop offset="1" stop-color="#36474f"/></linearGradient></defs><title>00</title><g class="cls-2"><g id="Layer_1" data-name="Layer 1"><rect class="cls-3" width="1600" height="900"/><rect class="cls-4" x="51.11" y="423.74" width="1497.77" height="476.26"/><g class="cls-5"><line class="cls-6" x1="1472.19" y1="350.69" x2="1472.19" y2="2406.85"/><line class="cls-6" x1="1429.06" y1="350.69" x2="1429.06" y2="2406.85"/><line class="cls-6" x1="1515.32" y1="350.69" x2="1515.32" y2="2406.85"/><line class="cls-6" x1="1385.93" y1="350.69" x2="1385.93" y2="2406.85"/><line class="cls-6" x1="1299.66" y1="350.69" x2="1299.66" y2="2406.85"/><line class="cls-6" x1="1342.79" y1="350.69" x2="1342.79" y2="2406.85"/><line class="cls-6" x1="1256.53" y1="350.69" x2="1256.53" y2="2406.85"/><line class="cls-6" x1="1213.4" y1="350.69" x2="1213.4" y2="2406.85"/><line class="cls-6" x1="1127.13" y1="350.69" x2="1127.13" y2="2406.85"/><line class="cls-6" x1="1170.26" y1="350.69" x2="1170.26" y2="2406.85"/><line class="cls-6" x1="1084" y1="350.69" x2="1084" y2="2406.85"/><line class="cls-6" x1="1040.86" y1="350.69" x2="1040.86" y2="2406.85"/><line class="cls-6" x1="954.6" y1="350.69" x2="954.6" y2="2406.85"/><line class="cls-6" x1="997.73" y1="350.69" x2="997.73" y2="2406.85"/><line class="cls-6" x1="911.47" y1="350.69" x2="911.47" y2="2406.85"/><line class="cls-6" x1="868.33" y1="350.69" x2="868.33" y2="2406.85"/><line class="cls-6" x1="782.07" y1="350.69" x2="782.07" y2="2406.85"/><line class="cls-6" x1="825.2" y1="350.69" x2="825.2" y2="2406.85"/><line class="cls-6" x1="738.94" y1="350.69" x2="738.94" y2="2406.85"/><line class="cls-6" x1="695.8" y1="350.69" x2="695.8" y2="2406.85"/><line class="cls-6" x1="609.54" y1="350.69" x2="609.54" y2="2406.85"/><line class="cls-6" x1="566.41" y1="350.69" x2="566.41" y2="2406.85"/><line class="cls-6" x1="652.67" y1="350.69" x2="652.67" y2="2406.85"/><line class="cls-6" x1="523.27" y1="350.69" x2="523.27" y2="2406.85"/><line class="cls-6" x1="437.01" y1="350.69" x2="437.01" y2="2406.85"/><line class="cls-6" x1="480.14" y1="350.69" x2="480.14" y2="2406.85"/><line class="cls-6" x1="393.87" y1="350.69" x2="393.87" y2="2406.85"/><line class="cls-6" x1="350.74" y1="350.69" x2="350.74" y2="2406.85"/><line class="cls-6" x1="264.48" y1="350.69" x2="264.48" y2="2406.85"/><line class="cls-6" x1="307.61" y1="350.69" x2="307.61" y2="2406.85"/><line class="cls-6" x1="221.34" y1="350.69" x2="221.34" y2="2406.85"/><line class="cls-6" x1="178.21" y1="350.69" x2="178.21" y2="2406.85"/><line class="cls-6" x1="91.95" y1="350.69" x2="91.95" y2="2406.85"/><line class="cls-6" x1="135.08" y1="350.69" x2="135.08" y2="2406.85"/></g><rect class="cls-7" x="35.91" y="387.29" width="1528.19" height="40.2"/><rect class="cls-1" width="1600" height="900"/><g class="cls-8"><path class="cls-7" d="M1201.8,311h0.2V59h398V43H1195.19c-5.38,0-10.19,4-10.19,9.35v282.6A10.41,10.41,0,0,0,1195.19,345H1600V311H1201.8Zm239.06,25.73a8.8,8.8,0,1,1,8.8-8.8A8.8,8.8,0,0,1,1440.86,336.73Z"/><path class="cls-9" d="M1202,65V311h398V65H1202Zm128,100.35a8,8,0,1,1,8-8A8,8,0,0,1,1330,165.35Z"/><rect class="cls-10" x="1202" y="65" width="398" height="246"/><rect class="cls-9" x="1202" y="59" width="398" height="6"/><rect class="cls-9" x="461.82" y="42.61" width="675.7" height="302.07" rx="9.74" ry="9.74"/><rect class="cls-7" x="461.82" y="42.61" width="675.88" height="302.07" rx="9.74" ry="9.74"/><rect class="cls-9" x="478.16" y="58.95" width="642.26" height="252.49"/><rect class="cls-10" x="478.16" y="58.95" width="642.83" height="252.49"/><rect class="cls-9" x="478.16" y="58.95" width="642.19" height="6.28"/><g class="cls-11"><polygon class="cls-12" points="1136.94 112.69 992.58 219.09 838.57 146.23 764.02 204.03 640.25 148.46 461.82 239.57 461.82 311.45 1120.99 311.45 1136.94 112.69"/><polyline class="cls-13" points="461.82 239.57 640.25 148.46 764.02 204.03 838.57 146.23 992.58 219.09 1136.94 112.69"/><polyline class="cls-14" points="459.87 187.24 580.38 148.46 704.15 204.46 838.57 112.69 947.05 177.19 1044.02 148.46 1137.7 188.83"/></g><rect class="cls-7" x="782.79" y="766.66" width="41.21" height="131.69"/><rect class="cls-3" x="718.55" y="750.47" width="169.7" height="16.97"/><rect class="cls-1" x="1165.84" y="33.12" width="434.16" height="325.45"/><rect class="cls-9" x="1444.74" y="84.27" width="62.09" height="8.79"/><rect class="cls-9" x="1444.74" y="107.81" width="83.58" height="8.79"/><rect class="cls-9" x="1457.31" y="131.36" width="29.23" height="8.79"/><rect class="cls-9" x="1457.31" y="222.9" width="29.23" height="8.79"/><rect class="cls-9" x="1457.31" y="154.9" width="128.77" height="8.79"/><rect class="cls-9" x="1466.46" y="178.44" width="86.18" height="8.79"/><rect class="cls-9" x="1450.24" y="247.1" width="128.77" height="8.79"/><rect class="cls-9" x="1459.39" y="270.64" width="86.18" height="8.79"/><rect class="cls-9" x="1457.31" y="201.99" width="128.77" height="8.79"/><polygon class="cls-3" points="925.61 899.7 678.57 899.7 687.99 880.14 916.18 880.14 925.61 899.7"/><g class="cls-15"><rect class="cls-9" x="-260" y="42.61" width="675.7" height="302.07" rx="9.74" ry="9.74"/><rect class="cls-7" x="-260" y="42.61" width="675.88" height="302.07" rx="9.74" ry="9.74"/><g class="cls-16"><circle class="cls-9" cx="-4.6" cy="327.93" r="8.8"/><rect class="cls-9" x="-243.66" y="58.95" width="642.26" height="252.49"/><rect class="cls-10" x="-243.66" y="58.95" width="642.83" height="252.49"/><rect class="cls-9" x="-243.66" y="58.95" width="642.19" height="6.28"/><polyline class="cls-17" points="-243.66 185.2 77.94 185.2 399.18 185.2"/><line class="cls-17" x1="77.44" y1="63.58" x2="77.94" y2="185.2"/><circle class="cls-18" cx="238.48" cy="238.62" r="25.71"/><circle class="cls-18" cx="336.4" cy="273.75" r="13.15"/><circle class="cls-12" cx="77.94" cy="369.05" r="144.37"/><circle class="cls-19" cx="159.79" cy="309.46" r="18.2"/><circle class="cls-19" cx="125.1" cy="262.78" r="9.1"/><rect class="cls-19" x="276.04" y="127.03" width="46.12" height="8.79" transform="translate(167.68 430.53) rotate(-90)"/><rect class="cls-19" x="291.6" y="119.05" width="62.09" height="8.79" transform="translate(199.21 446.09) rotate(-90)"/><rect class="cls-19" x="335.34" y="139.24" width="21.71" height="8.79" transform="translate(202.56 489.82) rotate(-90)"/><rect class="cls-9" x="113.61" y="95.71" width="128.77" height="8.79"/><rect class="cls-9" x="122.76" y="119.25" width="86.18" height="8.79"/><rect class="cls-9" x="113.61" y="142.8" width="128.77" height="8.79"/></g></g><path class="cls-3" d="M580.13,182.66h439.26a10.52,10.52,0,0,1,10.52,10.52V481.45a0,0,0,0,1,0,0H569.61a0,0,0,0,1,0,0V193.17A10.52,10.52,0,0,1,580.13,182.66Z"/><rect class="cls-20" x="589.72" y="202.77" width="420.08" height="258.57"/><circle class="cls-9" cx="799.76" cy="192.71" r="5.13"/><rect class="cls-21" x="589.72" y="202.77" width="420.08" height="258.57"/><rect class="cls-22" x="606.94" y="219.99" width="385.64" height="241.35"/><rect class="cls-23" x="823.47" y="291.37" width="234.75" height="105.2" transform="translate(1284.8 -596.88) rotate(90)"/><rect class="cls-9" x="606.94" y="219.99" width="385.64" height="7.81"/><rect class="cls-24" x="641.33" y="323.64" width="204.23" height="5.03"/><rect class="cls-24" x="641.33" y="338.46" width="212.84" height="5.03"/><rect class="cls-24" x="641.33" y="353.28" width="188.73" height="5.03"/><circle class="cls-24" cx="940.84" cy="340.97" r="23.54"/><rect class="cls-25" x="641.33" y="400.87" width="204.23" height="5.03"/><rect class="cls-25" x="641.33" y="414.51" width="212.84" height="5.03"/><rect class="cls-25" x="641.33" y="428.15" width="188.73" height="5.03"/><circle class="cls-25" cx="940.84" cy="417.03" r="23.54"/><rect class="cls-25" x="641.33" y="248.61" width="204.23" height="5.03"/><rect class="cls-25" x="641.33" y="262.25" width="212.84" height="5.03"/><rect class="cls-25" x="641.33" y="275.89" width="188.73" height="5.03"/><circle class="cls-25" cx="940.84" cy="264.76" r="23.54"/><rect class="cls-10" x="606.94" y="377.64" width="386.5" height="83.7"/><rect class="cls-10" x="606.94" y="220.61" width="386.5" height="83.7"/><rect class="cls-26" x="144.66" y="539.07" width="1308.42" height="40.2"/><rect class="cls-26" x="1160.95" y="719.54" width="320.73" height="40.2" transform="translate(581.68 2060.95) rotate(-90)"/><rect class="cls-27" x="1301.21" y="579.27" width="40.2" height="28.12"/><rect class="cls-26" x="121.92" y="719.54" width="320.73" height="40.2" transform="translate(-457.35 1021.92) rotate(-90)"/><rect class="cls-27" x="262.19" y="579.27" width="40.2" height="28.12" transform="translate(564.57 1186.66) rotate(-180)"/><polygon class="cls-28" points="1548.64 900 50.87 900 144.66 579.27 1453.08 579.27 1548.64 900"/><rect class="cls-7" x="605.23" y="579.27" width="53.33" height="26.67"/><rect class="cls-7" x="947.05" y="579.27" width="53.33" height="26.67"/><path class="cls-29" d="M966.45,725.06c0,13.83-10.54,25-23.54,25H663.79c-13,0-23.54-11.21-23.54-25V670.62a35.94,35.94,0,0,1,.53-6.14L681.94,427c3.74-21.74,21.54-37.53,42.31-37.53h158.3c20.77,0,38.57,15.79,42.31,37.53l40.84,237.6a35.93,35.93,0,0,1,.52,5.93Z"/><rect class="cls-3" x="1257.46" y="83.22" width="112.23" height="208.09" rx="11.8" ry="11.8" transform="translate(0.37 -2.6) rotate(0.11)"/><rect class="cls-4" x="1265.82" y="103.08" width="95.53" height="155.69" transform="translate(0.36 -2.6) rotate(0.11)"/><circle class="cls-30" cx="1313.4" cy="275.05" r="8.29" transform="translate(1035.75 1587.9) rotate(-89.89)"/><circle class="cls-31" cx="1313.4" cy="275.05" r="8.29" transform="translate(1035.75 1587.9) rotate(-89.89)"/><rect class="cls-7" x="1310.67" y="161.24" width="5.75" height="80.18" transform="translate(1109.6 1514.48) rotate(-89.89)"/><rect class="cls-7" x="1310.84" y="81.75" width="5.75" height="64.14" transform="translate(1197.29 1427.31) rotate(-89.89)"/><rect class="cls-7" x="1305.68" y="197.36" width="5.75" height="70.34" transform="translate(1073.43 1540.63) rotate(-89.89)"/><rect class="cls-7" x="1310.64" y="176.85" width="5.75" height="80.18" transform="translate(1093.97 1530.02) rotate(-89.89)"/><rect class="cls-7" x="1296.79" y="221.81" width="5.75" height="52.61" transform="translate(1048.97 1547.29) rotate(-89.89)"/><rect class="cls-30" x="1265.87" y="126.1" width="95.53" height="62.15" transform="translate(0.31 -2.6) rotate(0.11)"/><circle class="cls-7" cx="1313.63" cy="157.58" r="17.21" transform="matrix(0, -1, 1, 0, 1153.45, 1470.9)"/><circle class="cls-7" cx="1440.86" cy="327.93" r="8.8"/><line class="cls-14" x1="1330.84" y1="157.61" x2="1424.14" y2="87.96"/><circle class="cls-19" cx="1330" cy="157.34" r="8.01"/><circle class="cls-19" cx="1424" cy="88.34" r="8.01"/><polygon class="cls-7" points="464.67 539.07 315.01 539.07 325.01 518.81 454.67 518.81 464.67 539.07"/><polygon class="cls-7" points="1184.69 539.07 1128.43 539.07 1144.89 505.71 1168.22 505.71 1184.69 539.07"/><rect class="cls-7" x="1181.96" y="446.98" width="8.97" height="45.53" rx="1.68" ry="1.68"/><path class="cls-21" d="M1009.8,481.45V487a1.68,1.68,0,0,1-1.68,1.68H999a1.68,1.68,0,0,1-1.68-1.68v-5.6"/><path class="cls-21" d="M1159.85,522v3.8a0.84,0.84,0,0,1-.84.84h-4.58a0.84,0.84,0,0,1-.84-0.84V522"/><rect class="cls-7" x="1122.69" y="446.98" width="8.97" height="45.53" rx="1.68" ry="1.68"/><rect class="cls-3" x="1128.52" y="417.46" width="56.39" height="104.56" rx="5.93" ry="5.93" transform="translate(0.93 -2.29) rotate(0.11)"/><rect class="cls-22" x="1132.72" y="427.44" width="48" height="78.23" transform="translate(0.93 -2.29) rotate(0.11)"/><circle class="cls-30" cx="1156.63" cy="513.84" r="4.16" transform="translate(640.49 1669.45) rotate(-89.89)"/><circle class="cls-31" cx="1156.63" cy="513.84" r="4.16" transform="translate(640.49 1669.45) rotate(-89.89)"/><rect class="cls-24" x="1155.25" y="456.66" width="2.89" height="40.29" transform="translate(677.6 1632.56) rotate(-89.89)"/><rect class="cls-24" x="1155.34" y="416.72" width="2.89" height="32.23" transform="translate(721.66 1588.76) rotate(-89.89)"/><rect class="cls-24" x="1152.75" y="474.81" width="2.89" height="35.34" transform="translate(659.42 1645.7) rotate(-89.89)"/><rect class="cls-24" x="1155.24" y="464.5" width="2.89" height="40.29" transform="translate(669.74 1640.37) rotate(-89.89)"/><rect class="cls-24" x="1148.28" y="487.1" width="2.89" height="26.43" transform="translate(647.13 1649.04) rotate(-89.89)"/><rect class="cls-23" x="1132.74" y="439.01" width="48" height="31.23" transform="translate(0.9 -2.29) rotate(0.11)"/><circle class="cls-24" cx="1156.74" cy="454.82" r="8.65" transform="translate(699.63 1610.66) rotate(-89.89)"/><rect class="cls-7" x="479.41" y="435.74" width="8.97" height="65.53" rx="1.68" ry="1.68"/><rect class="cls-7" x="296.12" y="435.74" width="8.97" height="65.53" rx="1.68" ry="1.68"/><rect class="cls-3" x="324.03" y="373.35" width="136.43" height="180.31" rx="6.43" ry="6.43" transform="translate(-71.26 855.75) rotate(-90)"/><rect class="cls-21" x="334.53" y="388.67" width="110.6" height="149.66" transform="translate(-73.67 853.34) rotate(-90)"/><circle class="cls-9" cx="473.53" cy="463.5" r="4.43"/><rect class="cls-22" x="326.81" y="421.06" width="84.88" height="61.49"/><rect class="cls-23" x="326.81" y="491.17" width="84.88" height="27.64"/><rect class="cls-23" x="331.64" y="427.5" width="75.23" height="14.09"/><rect class="cls-24" x="342.89" y="446.41" width="52.73" height="4.7"/><rect class="cls-24" x="342.89" y="455.93" width="63.98" height="4.7"/><rect class="cls-24" x="342.89" y="465.45" width="55.94" height="4.7"/><rect class="cls-10" x="421.69" y="421.06" width="32.97" height="97.74"/><rect class="cls-32" x="1155.15" y="526.67" width="3.13" height="1.64"/><path class="cls-33" d="M1003.53,490.38v42.44c0,3.31,1.83,5.26,5.54,5.26h142.09c3.89,0,5.55-2.37,5.55-6.06v-3.7"/><rect class="cls-32" x="1001.01" y="488.73" width="5.05" height="1.64"/><path class="cls-21" d="M569.61,461.34H564a1.68,1.68,0,0,1-1.68-1.68V450.5a1.68,1.68,0,0,1,1.68-1.68h5.6"/><path class="cls-21" d="M482.4,460.37h3.8a0.84,0.84,0,0,1,.84.84v4.58a0.84,0.84,0,0,1-.84.84h-3.8"/><rect class="cls-32" x="486.3" y="462.68" width="3.13" height="1.64" transform="translate(24.36 951.37) rotate(-90)"/><path class="cls-33" d="M488.73,463.5h3.93c3.31,0,5.26,1.83,5.26,5.54v63.48a5.4,5.4,0,0,0,5.61,5.55h42.35a5.4,5.4,0,0,0,5.61-5.55V460.62c0-3.71,1.95-5.54,5.26-5.54h3.93"/><rect class="cls-32" x="558.98" y="454.25" width="5.05" height="1.64" transform="translate(1016.58 -106.43) rotate(90)"/></g></g></g></svg>